<svg version="1.1" id="Layer_1" xmlns="http://www.w3.org/2000/svg" xmlns:xlink="http://www.w3.org/1999/xlink" x="0px" y="0px"
	 width="100%" viewBox="0 0 2952 1502" enable-background="new 0 0 2952 1502" xml:space="preserve">
<path fill="#FEFFFE" opacity="1.000000" stroke="none" 
	d="
M2946.000000,1504.000000 
	C1964.773438,1504.000000 983.546814,1504.000000 2.160122,1504.000000 
	C2.160122,1003.494568 2.160122,502.989105 2.160122,2.000000 
	C982.732056,2.000000 1963.464111,2.000000 2945.098145,2.915906 
	C2946.000000,503.887878 2946.000000,1003.943909 2946.000000,1504.000000 
M978.919983,484.061523 
	C995.256714,526.930237 1012.176880,569.591125 1027.571533,612.795593 
	C1032.136841,625.608093 1040.990723,632.546936 1051.580200,640.501160 
	C1051.334839,638.189087 1051.353516,636.933472 1051.054810,635.758667 
	C1039.261597,589.363708 1020.955139,545.644409 996.711182,504.414825 
	C992.182556,496.713440 986.852478,489.483368 981.638611,480.745850 
	C979.643616,477.918152 977.648560,475.090454 975.653564,472.262756 
	C975.311951,472.436615 974.970276,472.610474 974.628662,472.784363 
	C975.973145,476.023682 977.317627,479.263031 978.919983,484.061523 
M893.960999,548.440857 
	C894.244751,548.452820 894.528564,548.464783 894.812317,548.476746 
	C894.570374,548.284119 894.328369,548.091492 893.763794,546.589294 
	C878.533875,531.253357 863.310730,515.910645 848.072083,500.583435 
	C832.720764,485.142944 817.353882,469.717865 801.760254,454.051361 
	C784.998840,472.954285 770.742615,491.848511 757.419312,512.581665 
	C760.378540,513.268982 761.933533,513.685974 763.510498,513.988220 
	C805.666626,522.069336 847.220642,532.403015 887.662964,546.953613 
	C889.701233,547.686890 892.068481,547.506165 893.960999,548.440857 
M531.618896,964.721069 
	C532.177368,964.837585 532.735779,964.954163 533.294250,965.070740 
	C532.840820,964.732117 532.387390,964.393494 532.012817,962.661743 
	C531.446777,961.839966 530.926331,960.982056 530.308167,960.201538 
	C471.988831,886.558289 413.664154,812.919128 355.322205,739.293823 
	C353.941498,737.551453 352.361511,735.966980 350.198639,733.555298 
	C323.373077,773.568726 303.126373,815.879028 286.479065,860.647888 
	C292.411682,862.589905 297.448364,864.205444 302.463287,865.885803 
	C337.814209,877.730530 372.875427,890.053223 406.356415,906.918030 
	C444.397583,926.079956 483.386749,943.363037 522.032471,961.315186 
	C525.138794,962.758118 528.777100,963.055908 531.618896,964.721069 
M258.489197,952.165100 
	C247.237915,996.772339 238.227142,1041.793579 232.773697,1087.515137 
	C231.677277,1096.707397 233.219315,1103.452271 240.471588,1110.385254 
	C314.279114,1180.943359 401.657410,1224.075195 502.302551,1239.744385 
	C573.399536,1250.813110 643.865723,1246.144775 713.011169,1225.854004 
	C781.778870,1205.674072 843.139954,1171.806152 897.187622,1124.674683 
	C955.737488,1073.616943 999.699524,1012.074463 1029.307251,940.362061 
	C1054.681152,878.904541 1066.184570,814.688416 1065.843750,748.281799 
	C1065.828735,745.350708 1065.595703,742.420776 1065.444824,739.059021 
	C1052.683716,738.383789 1044.270142,731.122620 1037.000854,722.085205 
	C1034.498291,718.974121 1032.237305,715.669128 1029.746338,712.548218 
	C1028.101562,710.487488 1026.493652,708.275940 1024.443604,706.678101 
	C985.753174,676.523254 945.398682,648.897705 901.903381,626.020142 
	C897.708679,623.813843 894.028198,623.550903 889.567017,624.893433 
	C838.240784,640.339111 786.886841,655.693665 735.480652,670.870544 
	C730.518738,672.335449 727.732544,674.784119 725.875610,679.678040 
	C718.553223,698.976685 710.986816,718.189636 703.108521,737.268188 
	C697.737061,750.276123 694.216003,763.416565 693.048706,777.640686 
	C688.874756,828.503662 686.143127,879.330994 689.416931,930.369507 
	C690.418091,945.978271 690.456482,961.677002 690.267639,977.326416 
	C690.057983,994.705566 687.785950,1011.879395 682.243347,1028.463257 
	C679.360352,1037.089600 675.736145,1045.684570 668.145142,1050.990112 
	C657.549866,1058.395264 646.629639,1065.321045 633.588806,1068.342407 
	C614.697693,1072.719360 595.921204,1072.251831 577.077148,1068.759399 
	C551.653992,1064.047729 527.804260,1054.673950 504.738373,1043.332275 
	C441.869293,1012.419067 377.077301,986.300415 310.318420,965.117493 
	C293.570526,959.803284 276.446747,955.673828 258.489197,952.165100 
M400.257568,297.234497 
	C177.420837,384.089966 58.918011,611.837646 92.988174,827.343506 
	C135.318237,832.114868 177.523697,836.872192 220.323593,841.696533 
	C222.732162,835.998230 225.065643,829.764099 227.941757,823.791321 
	C244.117966,790.198303 258.346100,755.450562 277.133453,723.378235 
	C312.731415,662.608215 362.204620,614.242615 421.087921,575.854736 
	C503.355194,522.222107 594.062622,499.780640 691.848267,504.750214 
	C694.141541,504.866760 696.445984,504.764862 699.254761,504.764862 
	C729.486084,438.876068 774.498474,383.849426 826.820984,334.085754 
	C705.984802,260.573242 548.012024,240.589310 400.257568,297.234497 
M2531.650146,677.571045 
	C2522.734619,662.893494 2509.843506,655.021362 2492.549072,656.672485 
	C2474.982422,658.349731 2463.194580,668.196228 2457.201416,684.877197 
	C2456.777100,686.058289 2455.929688,687.087585 2455.381836,688.013245 
	C2429.827881,685.629944 2406.906738,661.865051 2408.265137,639.253845 
	C2433.884766,632.182251 2451.213379,616.553589 2454.443359,589.220825 
	C2457.714600,561.538147 2444.492920,541.947144 2420.425049,528.815430 
	C2421.826904,524.669495 2422.941406,520.841064 2424.398926,517.147949 
	C2433.993164,492.837433 2446.464600,470.160461 2462.510010,449.450439 
	C2465.962646,444.993958 2469.405762,442.423431 2475.474365,441.898193 
	C2490.455322,440.601593 2502.713135,428.829926 2503.601562,414.053070 
	C2504.033691,406.865021 2507.418701,403.380127 2512.304443,399.652405 
	C2549.662598,371.149811 2591.652832,353.616455 2638.044434,346.699554 
	C2648.458496,345.146851 2659.049316,344.778290 2669.997559,343.826416 
	C2669.726074,346.566498 2669.785645,347.923553 2669.439941,349.168091 
	C2662.420166,374.434174 2680.179932,406.249237 2712.513184,409.406769 
	C2741.397461,412.227539 2765.366699,389.799622 2766.085938,359.109802 
	C2766.125977,357.416504 2766.660400,355.734802 2767.114502,353.217896 
	C2778.898682,362.997681 2782.836426,374.792358 2782.372314,388.503601 
	C2779.534912,472.405029 2743.316406,537.899170 2673.966797,585.111755 
	C2671.878662,586.533386 2669.500488,587.528687 2667.227295,588.738892 
	C2655.479248,563.561035 2636.821533,553.114014 2615.717529,559.475586 
	C2605.738770,562.483582 2597.955078,568.463562 2592.378906,577.248474 
	C2584.013916,590.426331 2584.595215,604.236389 2591.197266,618.843933 
	C2567.778076,623.134766 2545.566895,625.463196 2523.369385,622.856262 
	C2501.892578,620.333923 2487.542969,603.104675 2488.244141,581.227051 
	C2488.656738,568.361816 2491.558105,555.570190 2493.486328,542.767456 
	C2493.728271,541.161255 2494.865479,539.690002 2495.537598,538.262512 
	C2501.748047,546.519653 2507.349365,554.338989 2513.335693,561.851746 
	C2527.281006,579.352783 2547.667236,576.144958 2560.056152,563.107056 
	C2586.225098,535.567139 2613.438721,509.020233 2640.215088,482.057251 
	C2641.857910,480.403107 2643.547363,478.772308 2645.007080,476.962830 
	C2654.275879,465.473511 2653.781494,450.542145 2643.835449,439.553772 
	C2618.162354,411.190369 2578.860840,401.920258 2543.316650,416.265900 
	C2507.442871,430.744537 2485.974121,467.528015 2488.089844,501.297638 
	C2488.456299,507.146606 2487.069336,512.299500 2484.809814,517.654724 
	C2476.574219,537.171204 2472.547852,557.560547 2471.635498,578.812134 
	C2470.162842,613.119263 2497.124756,640.730713 2532.183594,640.166626 
	C2554.224854,639.811890 2576.133545,639.157104 2597.785645,634.467102 
	C2601.064697,633.756958 2605.323486,634.057739 2608.208008,635.606506 
	C2628.466797,646.484558 2656.181152,636.599060 2664.686035,614.137817 
	C2666.211914,610.107788 2668.617676,607.551636 2672.269531,605.456726 
	C2693.229004,593.433044 2711.980713,578.546753 2728.518555,560.942505 
	C2774.354980,512.150146 2797.738037,454.147949 2798.753418,387.297119 
	C2799.165283,360.180145 2785.029297,340.562866 2759.587402,330.392578 
	C2756.334229,329.092194 2753.304199,326.836182 2750.658936,324.475647 
	C2731.733398,307.586243 2706.487549,306.360596 2686.687012,322.068604 
	C2681.965820,325.814026 2677.450684,327.574921 2671.398193,327.669220 
	C2608.696533,328.646271 2552.540039,348.697144 2502.506836,386.298859 
	C2500.985840,387.441925 2499.233398,388.277008 2497.744141,389.163269 
	C2480.448975,374.253326 2463.271729,372.968994 2449.832031,385.242279 
	C2435.193115,398.610809 2435.587891,415.027191 2451.350342,437.041443 
	C2430.988037,463.447174 2414.987061,492.452148 2404.238770,524.788757 
	C2388.422363,524.198669 2374.105225,527.637695 2361.979736,537.712402 
	C2349.596436,548.001160 2342.517822,561.186584 2340.831543,577.192322 
	C2337.797607,605.986877 2354.609131,627.655090 2389.421631,639.946167 
	C2396.697021,675.617188 2416.777832,698.243774 2455.671875,705.982971 
	C2462.344727,726.807617 2476.024414,738.970337 2498.962158,738.341797 
	C2516.962646,737.848572 2529.488770,726.143555 2537.181641,703.235107 
	C2537.452393,703.040833 2537.698242,702.743103 2537.998535,702.670044 
	C2539.283203,702.357361 2540.573730,702.037781 2541.880615,701.850525 
	C2633.385986,688.737122 2714.157715,652.125305 2783.695312,591.111755 
	C2787.800293,587.510010 2791.206299,587.206909 2796.219482,588.630615 
	C2815.680908,594.157776 2834.390381,585.857849 2843.453125,568.239441 
	C2852.419434,550.808960 2847.555420,529.133972 2831.946045,516.958984 
	C2816.776611,505.127075 2796.015381,505.469147 2781.164062,517.795593 
	C2765.728027,530.607361 2761.760742,551.555481 2771.437500,569.305115 
	C2772.671387,571.568298 2774.050537,573.752258 2775.686523,576.522217 
	C2706.469727,637.508667 2626.811279,674.037781 2535.700684,685.898682 
	C2534.291992,683.047302 2533.272705,680.983765 2531.650146,677.571045 
M2137.144043,1108.961182 
	C2152.393311,1108.961182 2167.642334,1108.961182 2183.546143,1108.961182 
	C2188.512207,1076.840698 2193.324951,1045.713379 2198.200195,1014.180725 
	C2205.932861,1014.180725 2212.784668,1014.180725 2219.964600,1014.180725 
	C2220.862793,1016.566223 2221.769775,1018.667297 2222.454346,1020.838440 
	C2230.862305,1047.500977 2239.229004,1074.176758 2247.627197,1100.842529 
	C2250.145508,1108.838257 2250.175293,1108.913696 2258.662354,1108.941284 
	C2276.649658,1108.999512 2294.637939,1108.996582 2312.625000,1108.918335 
	C2315.114990,1108.907471 2317.602295,1108.324829 2321.169434,1107.869141 
	C2310.491943,1073.342896 2300.109863,1039.771484 2289.741943,1006.245911 
	C2292.199463,1004.133667 2293.811035,1002.457458 2295.692627,1001.178467 
	C2307.933350,992.858398 2316.783447,981.753784 2321.644531,967.879578 
	C2328.731445,947.652771 2332.280518,926.583191 2333.284424,905.264771 
	C2334.113281,887.666809 2326.641113,873.474976 2311.333740,864.225647 
	C2300.592529,857.735291 2288.547119,854.543762 2276.105957,854.386169 
	C2239.138672,853.917847 2202.164307,853.969299 2165.192871,853.856628 
	C2163.923828,853.852783 2162.653809,854.265076 2160.599121,854.618408 
	C2145.550293,939.020264 2130.684326,1023.358032 2115.766602,1108.960327 
	C2123.324951,1108.960327 2129.261963,1108.960327 2137.144043,1108.961182 
M2405.729980,868.763733 
	C2395.683594,874.479675 2387.877686,882.394592 2381.715576,892.188538 
	C2371.900391,907.788513 2369.363037,925.158264 2369.630615,942.949036 
	C2369.854736,957.859802 2375.715332,970.518005 2387.336670,980.629089 
	C2396.581299,988.671936 2406.874023,994.318604 2418.339600,998.189697 
	C2431.271240,1002.555664 2444.336426,1006.588562 2457.037354,1011.550659 
	C2464.406006,1014.429504 2471.899658,1017.925476 2478.060547,1022.767517 
	C2491.455322,1033.294556 2488.130859,1052.195923 2472.088867,1057.588623 
	C2458.857666,1062.036621 2445.140869,1062.016602 2431.775146,1057.868042 
	C2420.726318,1054.438599 2415.733887,1046.769165 2415.887207,1035.260986 
	C2415.925293,1032.405884 2415.892822,1029.549561 2415.892822,1026.245605 
	C2395.070312,1026.245605 2374.851074,1026.245605 2353.731201,1026.245605 
	C2349.943115,1040.406860 2349.048096,1054.525879 2352.053467,1068.719849 
	C2356.057861,1087.630493 2367.790771,1100.169189 2385.999756,1105.916870 
	C2396.088379,1109.101196 2406.642822,1111.444214 2417.156250,1112.528198 
	C2446.567627,1115.560059 2475.748779,1114.422729 2503.820557,1103.742432 
	C2519.903564,1097.623535 2532.735107,1087.459106 2541.066650,1072.148560 
	C2550.813965,1054.236450 2553.218506,1034.857910 2551.087891,1014.983582 
	C2549.816162,1003.124695 2544.333740,993.018860 2535.286377,984.658813 
	C2526.236328,976.296326 2515.952393,970.676392 2504.303711,967.182861 
	C2490.592285,963.070801 2476.816895,959.150879 2463.224609,954.675781 
	C2457.267578,952.714539 2451.470459,949.982422 2446.001221,946.891907 
	C2437.682129,942.191040 2433.983643,934.799927 2435.105225,925.117249 
	C2436.205811,915.611694 2442.080811,910.432739 2450.606689,907.519165 
	C2460.968750,903.978088 2471.592529,904.185059 2482.232666,905.523254 
	C2496.699707,907.342712 2504.595703,918.096069 2501.774902,932.393311 
	C2500.833008,937.167847 2498.811523,941.729370 2497.313965,946.295654 
	C2497.998047,946.847839 2498.480957,947.579102 2498.968994,947.582703 
	C2516.954590,947.716431 2534.940918,947.748047 2552.926270,947.886047 
	C2556.748047,947.915344 2559.290283,946.138184 2560.845459,942.881775 
	C2570.430908,922.808289 2572.219727,902.440247 2560.972900,882.579468 
	C2551.202148,865.324768 2534.370850,858.136047 2515.905273,854.245300 
	C2497.122070,850.287598 2478.068604,850.731995 2459.171875,852.563965 
	C2440.908447,854.334412 2422.944824,858.076172 2405.729980,868.763733 
M2078.260498,1053.784912 
	C2060.598389,1053.778931 2042.933716,1053.947388 2025.274414,1053.718262 
	C2007.495361,1053.487549 1989.646973,1054.776245 1970.655151,1052.697021 
	C1973.106201,1038.561890 1975.350098,1025.621216 1977.757812,1011.735107 
	C2009.685791,1011.735107 2040.512573,1011.735107 2071.963135,1011.735107 
	C2075.218506,993.179504 2078.292725,975.655823 2081.624512,956.664124 
	C2049.538818,956.664124 2019.072144,956.664124 1987.432861,956.664124 
	C1990.357666,940.022339 1993.034546,924.791626 1995.840942,908.823792 
	C2000.600952,908.823792 2004.203735,908.823975 2007.806396,908.823792 
	C2039.131714,908.822266 2070.457031,908.863708 2101.782227,908.789185 
	C2109.793701,908.770081 2110.017822,908.407776 2111.418213,900.630920 
	C2113.837891,887.193420 2116.297852,873.763000 2118.638672,860.311829 
	C2118.955322,858.492126 2118.682373,856.569763 2118.682373,854.284424 
	C2059.486816,854.284424 2000.983154,854.284424 1942.637573,854.284424 
	C1937.596436,870.028992 1897.694702,1100.845215 1898.713379,1108.335938 
	C1957.193726,1108.335938 2015.701538,1108.335938 2074.754639,1108.335938 
	C2077.726562,1091.819336 2080.614014,1075.810303 2083.483154,1059.797974 
	C2084.002930,1056.896484 2083.687012,1054.420044 2078.260498,1053.784912 
M2586.096191,1108.958374 
	C2642.033203,1108.786743 2697.970215,1108.615967 2753.907227,1108.427124 
	C2754.209473,1108.426147 2754.540283,1108.213501 2754.803955,1108.024658 
	C2755.069580,1107.834351 2755.268066,1107.549927 2756.382568,1106.361450 
	C2759.287109,1089.979980 2762.384033,1072.513306 2765.707764,1053.767822 
	C2754.887939,1053.767822 2745.639160,1053.767944 2736.390137,1053.767944 
	C2727.063477,1053.768066 2717.736816,1053.768188 2708.410156,1053.768066 
	C2699.083496,1053.768066 2689.754639,1053.890503 2680.430664,1053.732666 
	C2671.260742,1053.577637 2662.016602,1054.449829 2651.675293,1052.949341 
	C2653.658203,1041.853149 2655.492676,1031.775391 2657.252197,1021.684448 
	C2658.916504,1012.139160 2658.881592,1012.053528 2668.458252,1012.034729 
	C2692.774170,1011.987122 2717.090088,1012.017761 2741.406006,1012.017090 
	C2744.971436,1012.016968 2748.536865,1012.017029 2753.086426,1012.017029 
	C2756.372070,993.501038 2759.481201,975.980591 2762.873047,956.866272 
	C2758.073242,956.866272 2754.547607,956.866516 2751.021729,956.866333 
	C2727.371826,956.864868 2703.722168,956.893555 2680.072266,956.828064 
	C2676.635010,956.818604 2673.198730,956.357727 2668.910400,956.043213 
	C2671.395020,941.220215 2673.678223,927.791321 2675.877197,914.348633 
	C2676.448242,910.856873 2678.325195,908.997009 2681.849854,908.895081 
	C2684.512939,908.817993 2687.178711,908.824646 2689.843262,908.824341 
	C2719.821777,908.820984 2749.800293,908.823547 2779.778809,908.824402 
	C2783.353027,908.824524 2786.927246,908.824402 2791.026855,908.824402 
	C2794.312988,890.220764 2797.405273,872.712830 2800.490967,855.242737 
	C2787.913330,852.795288 2629.919922,853.365967 2622.570801,855.779541 
	C2607.805664,939.615112 2592.997559,1023.695618 2578.123779,1108.148804 
	C2581.108643,1108.531738 2582.729736,1108.739746 2586.096191,1108.958374 
M1224.426636,949.949707 
	C1226.200562,939.445007 1227.919800,928.930603 1229.764526,918.438354 
	C1231.437500,908.922668 1231.497681,908.852905 1241.082275,908.840576 
	C1272.068604,908.800720 1303.055054,908.825317 1334.041382,908.825012 
	C1337.628540,908.825012 1341.215698,908.825012 1345.479004,908.825012 
	C1348.543945,890.027588 1353.103882,872.522644 1354.506348,854.536621 
	C1294.761353,854.536621 1236.283569,854.536621 1177.312866,854.536621 
	C1162.376465,939.306091 1147.552368,1023.438232 1132.600464,1108.296021 
	C1192.408081,1108.296021 1251.133423,1108.296021 1310.543091,1108.296021 
	C1313.727905,1090.243774 1316.817383,1072.732178 1320.159424,1053.788940 
	C1281.796387,1053.788940 1244.980957,1053.788940 1206.866333,1053.788940 
	C1208.190674,1039.026978 1210.654907,1025.864868 1213.752319,1011.830933 
	C1245.328369,1011.830933 1276.186768,1011.830933 1307.569214,1011.830933 
	C1310.888672,993.327820 1314.034912,975.789368 1317.430542,956.861694 
	C1312.765869,956.861694 1309.519043,956.861694 1306.272339,956.861633 
	C1282.616089,956.861450 1258.959839,956.866333 1235.303589,956.853882 
	C1232.641113,956.852539 1229.969116,956.876465 1227.318848,956.668518 
	C1224.258667,956.428406 1223.607788,954.386536 1224.426636,949.949707 
M1842.391846,1027.609009 
	C1864.149902,970.115173 1885.908081,912.621338 1907.906982,854.491577 
	C1884.041382,854.491577 1861.545776,854.491577 1839.237427,854.491577 
	C1838.314453,856.679321 1837.580200,858.181091 1837.034180,859.748474 
	C1822.029053,902.832520 1807.052002,945.926331 1792.049683,989.011353 
	C1786.136597,1005.992981 1780.212280,1022.970886 1774.215698,1039.923096 
	C1771.815552,1046.708008 1771.720581,1046.674438 1763.776001,1045.501831 
	C1763.776001,1035.010620 1763.759766,1024.393555 1763.780518,1013.776489 
	C1763.801392,1003.111023 1763.860840,992.445740 1763.899902,981.780334 
	C1763.939087,971.114929 1763.971802,960.449524 1764.011841,949.784119 
	C1764.052124,939.118713 1764.096436,928.453369 1764.141357,917.787964 
	C1764.186401,907.122620 1764.373169,896.455505 1764.240845,885.792358 
	C1764.110840,875.319275 1765.192871,864.764099 1763.607910,853.890869 
	C1740.382446,854.004700 1718.237427,853.176758 1695.305664,854.391602 
	C1696.195068,939.545105 1697.073608,1023.672913 1697.958252,1108.374756 
	C1736.543945,1108.374756 1773.723633,1108.374756 1811.672852,1108.374756 
	C1821.730591,1081.873901 1831.756714,1055.456909 1842.391846,1027.609009 
M1387.417725,1207.306885 
	C1392.706421,1205.228027 1391.523438,1200.107056 1392.233643,1196.196045 
	C1397.644165,1166.397461 1402.772705,1136.547607 1408.013306,1106.718018 
	C1408.340576,1104.855347 1408.871216,1103.028320 1409.507202,1100.339478 
	C1411.878906,1101.678101 1413.474609,1102.605103 1415.094238,1103.487915 
	C1419.454712,1105.864746 1423.574829,1109.058960 1428.232178,1110.453613 
	C1460.249390,1120.042236 1503.327393,1110.746216 1519.405273,1068.372192 
	C1529.743896,1041.124268 1533.910645,1012.263977 1534.787842,983.274780 
	C1535.460815,961.029785 1523.731567,945.028381 1504.695679,938.465027 
	C1498.775879,936.423950 1492.454468,935.147278 1486.215698,934.507996 
	C1467.625610,932.602844 1449.682617,934.765747 1433.758057,945.350891 
	C1430.744873,943.162659 1432.019287,938.332153 1427.198608,938.402161 
	C1410.966797,938.637817 1394.729492,938.491821 1378.880493,938.491821 
	C1374.279297,951.444214 1331.101807,1199.156738 1332.147217,1207.435181 
	C1349.883545,1207.435181 1367.781860,1207.435181 1387.417725,1207.306885 
M592.385742,908.587524 
	C546.314087,813.319641 500.242706,718.051636 454.152496,622.792725 
	C454.026184,622.531616 453.645935,622.339111 453.342865,622.234314 
	C453.073578,622.141174 452.746674,622.214722 451.899872,622.214722 
	C422.245728,644.368652 395.771332,670.306030 372.384155,700.031433 
	C374.865509,703.548523 376.880005,706.535156 379.025421,709.424561 
	C399.668304,737.226501 420.324829,765.018250 440.993561,792.800903 
	C487.696594,855.578613 534.382263,918.369263 581.190796,981.068176 
	C583.692078,984.418579 586.809387,987.832886 590.421570,989.724915 
	C598.848572,994.138794 608.135925,995.258545 617.622498,994.259644 
	C622.697632,993.725281 627.260437,992.244873 630.420593,987.414429 
	C617.907654,961.439270 605.497437,935.677368 592.385742,908.587524 
M592.770691,852.300293 
	C606.841675,882.121094 620.124573,912.321716 635.239502,941.699646 
	C635.551697,903.470154 635.241150,865.632141 630.532898,827.795532 
	C620.748169,749.162476 612.424255,670.347717 603.462646,591.611877 
	C602.494385,583.105469 601.280518,574.627014 600.097229,565.491577 
	C555.138000,565.831726 515.005798,578.504395 477.622742,603.013245 
	C515.991638,686.074646 554.067078,768.500854 592.770691,852.300293 
M929.029541,556.003540 
	C936.321106,566.413574 946.451904,573.020386 957.829102,578.259644 
	C966.483032,582.244873 974.766113,587.035339 984.831177,592.315979 
	C983.760193,588.057983 983.354614,585.528259 982.495361,583.163452 
	C961.356873,524.991882 940.186523,466.831848 918.941406,408.699127 
	C917.937927,405.953278 916.716797,402.944000 914.702759,400.969696 
	C905.936218,392.376038 896.838440,384.120331 887.502930,375.407745 
	C863.263794,392.870728 840.557983,410.895935 820.456482,432.524902 
	C856.865540,473.943451 892.468872,514.445496 929.029541,556.003540 
M2390.401123,446.734955 
	C2392.213623,448.683105 2394.276855,450.456146 2395.785156,452.616638 
	C2398.734131,456.840271 2398.337158,461.172607 2395.088135,464.422852 
	C2391.977539,467.534607 2387.132812,468.019562 2383.212646,465.159637 
	C2380.815430,463.410980 2378.842773,461.072113 2376.719482,458.958069 
	C2369.482666,451.752563 2362.263428,444.529327 2355.300537,437.575317 
	C2350.921631,441.533112 2347.306641,444.800354 2342.886230,448.795471 
	C2353.157471,458.893127 2362.552246,468.785980 2372.673828,477.868713 
	C2380.592041,484.974030 2390.203613,485.909210 2399.722900,481.096283 
	C2409.476074,476.165009 2414.510254,467.986908 2414.136230,456.819305 
	C2413.887939,449.403229 2410.573730,443.485229 2405.411865,438.343750 
	C2391.719482,424.705475 2378.099854,410.993958 2364.468750,397.294098 
	C2362.591797,395.407684 2360.540771,393.609589 2359.051758,391.440216 
	C2356.336914,387.484680 2356.902832,382.484955 2360.004395,379.550659 
	C2363.192383,376.534515 2367.983643,376.146149 2371.891113,379.160645 
	C2375.037354,381.587921 2377.564209,384.806732 2380.648682,387.328552 
	C2394.737793,398.847717 2415.990234,392.673798 2421.178711,375.343506 
	C2424.304443,364.903412 2421.520508,355.704132 2413.708740,347.932220 
	C2397.410400,331.716553 2381.236084,315.375793 2365.015137,299.082092 
	C2363.370117,297.429626 2361.603027,295.868896 2360.153076,294.057312 
	C2356.329590,289.280182 2356.404053,284.094543 2360.169678,280.636780 
	C2363.793457,277.309143 2368.215332,277.400360 2372.765137,281.094666 
	C2374.567383,282.557892 2376.123291,284.327637 2377.768799,285.980133 
	C2397.989502,306.284912 2418.205811,326.594086 2438.424561,346.901093 
	C2440.305176,348.790070 2442.134277,350.735626 2444.088867,352.545135 
	C2454.982422,362.630859 2469.871338,362.811523 2480.054688,353.020660 
	C2490.233398,343.234253 2490.723877,328.261932 2480.799072,317.081299 
	C2475.055664,310.611389 2468.697510,304.688293 2462.629150,298.506195 
	C2460.996582,296.842896 2459.229004,295.269470 2457.843262,293.415588 
	C2454.574219,289.042603 2454.810547,284.019135 2458.211914,280.758179 
	C2461.763184,277.352936 2466.294922,277.350647 2470.804443,280.958130 
	C2472.615723,282.407227 2474.169434,284.182404 2475.813721,285.835815 
	C2491.791260,301.901855 2507.754395,317.981750 2523.745361,334.034515 
	C2526.052490,336.350555 2528.483398,338.543549 2531.354248,341.264832 
	C2535.359131,337.253479 2538.965820,333.640900 2543.506104,329.093231 
	C2522.581055,308.513672 2502.644531,288.887634 2482.669678,269.300140 
	C2481.253418,267.911438 2479.656250,266.652405 2477.978516,265.594055 
	C2461.916992,255.462143 2440.751709,265.742493 2438.993408,284.628815 
	C2438.208008,293.063690 2441.129639,300.343323 2447.129883,306.346405 
	C2453.253906,312.473450 2459.438232,318.541260 2465.514648,324.714996 
	C2472.238037,331.545959 2473.159668,336.552032 2468.681641,340.998352 
	C2464.208008,345.440308 2459.201660,344.523987 2452.476074,337.770325 
	C2433.666260,318.881958 2414.922119,299.928558 2396.135010,281.017639 
	C2391.674316,276.527252 2387.406006,271.797974 2382.596924,267.711182 
	C2372.597168,259.213287 2358.309814,259.671967 2348.832520,268.393097 
	C2339.720459,276.778168 2337.927734,290.606293 2344.862061,301.211853 
	C2346.844238,304.242981 2349.470703,306.899719 2352.040039,309.491943 
	C2367.521240,325.111511 2383.073975,340.660004 2398.595215,356.239868 
	C2400.239990,357.891022 2402.012451,359.455566 2403.420410,361.294006 
	C2406.856445,365.780151 2406.716553,370.478912 2403.270508,373.928864 
	C2399.914062,377.289001 2394.883789,377.460175 2390.644287,373.988312 
	C2387.561279,371.463379 2385.021240,368.259583 2381.873535,365.832458 
	C2367.334717,354.621002 2346.724609,361.320251 2341.708984,378.865509 
	C2338.892578,388.715790 2341.488770,397.317932 2348.586914,404.530945 
	C2362.142090,418.305756 2375.787598,431.992126 2390.401123,446.734955 
M2773.706055,751.768616 
	C2775.793213,740.910889 2771.822998,732.366638 2764.100342,724.867981 
	C2753.347412,714.427124 2742.923096,703.647339 2732.384766,692.986206 
	C2730.515869,691.095459 2728.416748,689.295410 2727.059082,687.066650 
	C2724.794922,683.350830 2724.846436,679.418762 2727.871094,675.972595 
	C2730.751953,672.690002 2735.753906,672.078796 2739.692627,674.773804 
	C2741.862305,676.258362 2743.648926,678.325134 2745.527832,680.209412 
	C2763.639893,698.372681 2781.731201,716.556274 2799.838867,734.723816 
	C2801.954590,736.846375 2803.985596,739.088501 2806.305176,740.967102 
	C2816.568359,749.278931 2830.664551,748.742676 2840.034912,739.808777 
	C2849.346924,730.930664 2850.656250,716.737427 2842.956787,706.139771 
	C2841.013672,703.465149 2838.603027,701.107056 2836.261230,698.748718 
	C2823.351562,685.747803 2810.381592,672.806641 2797.473389,659.804321 
	C2795.607422,657.924866 2793.607666,656.033630 2792.293213,653.783691 
	C2790.048584,649.940491 2790.458008,645.995972 2793.747070,642.835510 
	C2797.008057,639.702271 2800.918701,639.197693 2804.699707,641.748596 
	C2807.152100,643.402954 2809.273193,645.592346 2811.384521,647.700562 
	C2818.853271,655.158325 2826.254150,662.684326 2832.984619,669.481323 
	C2837.635986,665.658997 2841.411865,662.556274 2845.795898,658.953552 
	C2836.087646,649.221436 2827.357422,640.101379 2818.222412,631.406677 
	C2807.215332,620.930420 2791.571289,621.105469 2781.531006,631.402466 
	C2771.697021,641.487793 2771.630127,656.607117 2781.973389,667.370911 
	C2795.589844,681.540588 2809.608887,695.323486 2823.450439,709.277222 
	C2825.091797,710.932007 2826.846191,712.500732 2828.306396,714.304993 
	C2832.361084,719.315002 2832.475830,724.040894 2828.806641,727.726135 
	C2825.280029,731.268005 2820.073242,731.078430 2815.413574,727.072327 
	C2813.397949,725.339661 2811.603516,723.348328 2809.722412,721.460510 
	C2790.677246,702.346008 2771.727539,683.135315 2752.551758,664.152771 
	C2743.432373,655.125244 2731.815186,653.785583 2721.456055,659.925903 
	C2711.300049,665.945740 2706.294678,677.825195 2710.197021,689.222534 
	C2711.851074,694.054443 2715.132324,698.680908 2718.686523,702.444641 
	C2729.203613,713.581360 2740.240234,724.226868 2751.035645,735.102051 
	C2752.904541,736.984802 2754.836182,738.884888 2756.302490,741.069702 
	C2758.858643,744.877502 2758.350098,748.747192 2755.236084,752.014587 
	C2752.077393,755.329102 2748.107422,755.681458 2744.286377,753.476685 
	C2742.035645,752.177917 2740.212646,750.078064 2738.335693,748.200439 
	C2722.085449,731.944397 2705.494873,716.006287 2689.751709,699.271851 
	C2676.382080,685.060486 2659.209229,688.329590 2650.728271,696.951233 
	C2640.555420,707.292847 2641.086670,725.320251 2652.944824,735.234131 
	C2654.958252,736.917419 2656.729980,739.017151 2658.190186,741.206848 
	C2660.761719,745.063721 2660.082031,748.919250 2656.940918,752.116272 
	C2653.742920,755.371033 2649.764893,755.665100 2645.967529,753.400208 
	C2643.730469,752.065979 2641.908691,749.985962 2640.026855,748.114014 
	C2628.689941,736.837830 2617.404541,725.509888 2606.062256,714.239197 
	C2604.239746,712.428040 2602.218018,710.817017 2600.615967,709.402710 
	C2596.584961,713.094727 2593.027588,716.353027 2589.308594,719.759399 
	C2604.886719,735.569580 2619.643555,751.364990 2635.357178,766.143188 
	C2643.053711,773.381592 2653.029053,773.380188 2662.453613,768.395081 
	C2676.465332,760.983276 2680.427490,743.551086 2670.996338,730.771729 
	C2668.442139,727.310974 2665.013916,724.504456 2662.353760,721.110168 
	C2658.905029,716.709656 2659.244141,711.882324 2662.788574,708.516846 
	C2666.299072,705.183533 2671.023926,705.163513 2675.418213,708.671387 
	C2677.229736,710.117615 2678.774170,711.901123 2680.419922,713.551514 
	C2696.179443,729.356018 2711.894775,745.204895 2727.728516,760.934753 
	C2730.536621,763.724243 2733.541260,766.538025 2736.951660,768.459961 
	C2751.683594,776.761658 2769.380371,767.384521 2773.706055,751.768616 
M1642.425293,1100.973267 
	C1647.040527,1088.145020 1644.551270,1074.952881 1645.640503,1061.597900 
	C1639.855469,1062.185547 1635.288330,1063.073242 1630.733765,1063.013550 
	C1623.772705,1062.922241 1620.976196,1059.995361 1621.118408,1053.112427 
	C1621.207031,1048.814209 1621.956787,1044.501099 1622.718262,1040.250000 
	C1627.469360,1013.726868 1632.357178,987.228210 1637.083374,960.700745 
	C1638.332031,953.691833 1639.171631,946.610046 1640.274292,939.046997 
	C1619.719727,939.046997 1600.579346,939.046997 1581.049438,939.046997 
	C1580.197632,942.372925 1579.279053,945.199341 1578.761230,948.097290 
	C1572.793091,981.498413 1566.718506,1014.882202 1561.066040,1048.337036 
	C1559.410156,1058.138184 1558.124390,1068.157959 1558.216675,1078.062988 
	C1558.368896,1094.366577 1566.334839,1105.990234 1580.435181,1110.181519 
	C1601.736084,1116.512695 1622.531982,1116.032471 1642.425293,1100.973267 
M1588.123657,882.368225 
	C1588.319946,896.885925 1598.155396,903.523438 1606.870972,904.843323 
	C1638.931030,909.698303 1662.405884,897.459595 1658.069580,857.776917 
	C1656.958740,847.610840 1650.494019,840.619324 1640.622681,838.523376 
	C1636.417114,837.630432 1632.061157,837.060730 1627.768188,837.027100 
	C1603.115479,836.833496 1589.432129,849.894836 1588.134277,874.614746 
	C1588.029907,876.605896 1588.040405,878.603027 1588.123657,882.368225 
M661.214783,622.531555 
	C666.056824,603.311096 670.898926,584.090698 675.971375,563.955688 
	C658.785339,563.590759 642.392395,562.421204 625.412231,564.629150 
	C631.075195,620.887512 636.637329,676.144043 642.114685,730.558655 
	C648.259827,695.463074 654.503967,659.802124 661.214783,622.531555 
M154.234085,1002.831787 
	C158.333694,1008.425720 160.527802,1015.482117 166.232025,1019.879700 
	C173.235291,991.236145 180.074448,963.263733 187.039764,934.775391 
	C164.638809,930.358154 141.914963,927.143616 118.464760,925.440735 
	C124.122208,945.352600 136.630325,972.341614 154.234085,1002.831787 
M760.912354,591.703796 
	C755.396606,605.971863 748.846741,619.866699 743.501526,635.781738 
	C781.495361,625.957336 817.541992,616.636414 853.588684,607.315491 
	C853.585022,606.602844 853.581299,605.890137 853.577637,605.177490 
	C825.491943,593.744629 796.961365,583.706909 766.801086,577.612427 
	C764.832153,582.369080 763.191956,586.331421 760.912354,591.703796 
M2640.372559,294.615326 
	C2643.937012,294.615326 2647.501221,294.615326 2651.245605,294.615326 
	C2651.245605,288.617279 2651.245605,283.781891 2651.245605,278.470703 
	C2645.923340,278.105316 2641.092285,277.773651 2635.978760,277.422607 
	C2635.628418,272.100464 2635.310547,267.271606 2634.985352,262.331848 
	C2629.344238,262.331848 2624.285156,262.331848 2619.216797,262.331848 
	C2618.815674,267.923035 2618.471191,272.724518 2618.125977,277.533173 
	C2612.343506,277.904419 2607.544434,278.212494 2603.060547,278.500336 
	C2603.060547,284.390900 2603.060547,289.157623 2603.060547,294.209503 
	C2608.342285,294.500031 2612.908936,294.751190 2617.964600,295.029297 
	C2618.489746,300.466766 2618.982422,305.571411 2619.463379,310.551392 
	C2625.106689,310.551392 2629.911377,310.551392 2635.541260,310.551392 
	C2635.541260,306.291382 2635.249512,302.662811 2635.676025,299.120758 
	C2635.863525,297.563049 2637.512207,296.181213 2640.372559,294.615326 
M2541.674316,771.625732 
	C2545.497070,771.500977 2549.319824,771.376282 2553.177002,771.250427 
	C2553.569336,765.160156 2553.878662,760.357910 2554.182617,755.637634 
	C2559.806885,755.308472 2564.382080,755.040710 2569.099854,754.764587 
	C2569.099854,749.087280 2569.099854,744.049866 2569.099854,738.743713 
	C2563.513428,738.445374 2558.720947,738.189453 2554.045654,737.939758 
	C2553.696533,732.216003 2553.418457,727.659424 2553.113525,722.665283 
	C2547.669434,722.665283 2542.863525,722.665283 2537.659180,722.665283 
	C2537.209473,727.910278 2536.796387,732.731140 2536.354736,737.884399 
	C2530.973633,738.263000 2526.153076,738.602234 2521.042480,738.961792 
	C2521.042480,744.524414 2521.042480,749.331482 2521.042480,754.662415 
	C2526.361816,755.055908 2531.190918,755.413086 2537.054932,755.846863 
	C2537.054932,759.901794 2536.763916,763.508301 2537.186768,767.029297 
	C2537.377930,768.621643 2538.988281,770.043701 2541.674316,771.625732 
M2831.813965,283.427917 
	C2831.875000,280.586731 2831.593018,278.006134 2827.801025,278.013794 
	C2823.904297,278.021667 2820.007324,278.015533 2815.851562,278.015533 
	C2815.455078,283.765686 2815.120850,288.612061 2814.759766,293.846985 
	C2809.408691,294.236633 2804.589600,294.587524 2799.644531,294.947601 
	C2799.644531,300.646027 2799.644531,305.681671 2799.644531,310.700653 
	C2805.287842,311.164978 2810.078369,311.559174 2814.913086,311.956940 
	C2815.239258,317.526276 2815.506592,322.091309 2815.788574,326.901978 
	C2821.209961,326.901978 2826.013672,326.901978 2831.286377,326.901978 
	C2831.679932,321.545471 2832.033691,316.735352 2832.405029,311.683685 
	C2837.818115,311.327881 2842.643066,311.010742 2847.408203,310.697540 
	C2847.408203,304.982208 2847.408203,300.155396 2847.408203,294.974457 
	C2842.047607,294.540283 2837.253906,294.152069 2831.820068,293.711975 
	C2831.820068,290.463745 2831.820068,287.864288 2831.813965,283.427917 
M2662.800293,508.209351 
	C2659.286133,508.209351 2655.771973,508.209351 2652.387695,508.209351 
	C2652.387695,514.497253 2652.387695,519.312439 2652.387695,524.339600 
	C2657.824707,524.738159 2662.618896,525.089661 2667.571045,525.452759 
	C2667.917725,531.184570 2668.208252,535.991516 2668.489258,540.639160 
	C2674.239014,540.639160 2678.990234,540.639160 2683.819336,540.639160 
	C2684.185303,535.052185 2684.500244,530.245789 2684.829346,525.222778 
	C2690.630615,524.884827 2695.447998,524.604187 2700.033691,524.337036 
	C2700.033691,518.485596 2700.033691,513.622620 2700.033691,508.644775 
	C2694.570312,508.292114 2689.731934,507.979797 2684.664551,507.652679 
	C2684.325928,502.059235 2684.033936,497.235962 2683.752197,492.581940 
	C2678.108398,492.581940 2673.330322,492.581940 2667.948975,492.581940 
	C2667.948975,496.914795 2668.261963,500.574371 2667.797363,504.132446 
	C2667.607666,505.586334 2665.733398,506.820251 2662.800293,508.209351 
M708.959045,634.977661 
	C708.480835,638.112915 708.002625,641.248169 707.496399,644.566833 
	C714.210388,644.663574 717.214966,641.630615 719.288147,636.367920 
	C726.701355,617.549194 734.497803,598.881653 742.105896,580.139343 
	C742.953613,578.051147 743.523254,575.850159 744.566956,572.640198 
	C738.625671,571.577881 733.304688,570.626526 727.780945,569.638855 
	C719.476807,590.976074 713.331177,611.897827 708.959045,634.977661 
M2422.283203,763.128540 
	C2422.485596,765.677124 2422.688232,768.225769 2422.916504,771.099609 
	C2428.351562,771.099609 2433.144287,771.099609 2438.083984,771.099609 
	C2438.083984,765.498779 2438.083984,760.458618 2438.083984,755.725830 
	C2432.381836,755.725830 2427.573730,755.725830 2422.613281,755.725830 
	C2422.474609,758.124634 2422.379639,759.768921 2422.283203,763.128540 
M2553.452148,299.671692 
	C2553.452148,303.246948 2553.452148,306.822205 2553.452148,310.641663 
	C2559.369873,310.641663 2564.195557,310.641663 2569.049561,310.641663 
	C2569.049561,304.966553 2569.049561,299.910889 2569.049561,294.441010 
	C2564.538330,294.441010 2560.847168,294.114563 2557.267578,294.605377 
	C2555.880859,294.795502 2554.747314,296.835114 2553.452148,299.671692 
M2725.107666,475.531067 
	C2722.581299,475.756866 2720.054932,475.982666 2717.736328,476.189911 
	C2717.736328,481.726868 2717.736328,486.546082 2717.736328,491.283630 
	C2723.222168,491.283630 2728.026855,491.283630 2733.085449,491.283630 
	C2733.085449,485.872803 2733.085449,481.115082 2733.085449,475.965576 
	C2730.600342,475.796539 2728.660889,475.664612 2725.107666,475.531067 
M2455.324707,653.617615 
	C2455.324707,649.393738 2455.324707,645.169922 2455.324707,640.476013 
	C2449.560059,640.476013 2444.746826,640.476013 2439.488525,640.476013 
	C2439.488525,645.797974 2439.488525,650.802307 2439.488525,656.831116 
	C2445.183350,656.211792 2450.000977,655.687866 2455.324707,653.617615 
M2389.777588,728.955688 
	C2389.907959,731.868896 2390.038330,734.782043 2390.185547,738.072021 
	C2395.605469,738.072021 2400.466309,738.072021 2405.557617,738.072021 
	C2405.557617,732.749268 2405.557617,727.934326 2405.557617,722.256531 
	C2401.112305,722.256531 2397.196533,722.188904 2393.284424,722.277649 
	C2390.070312,722.350525 2389.801758,724.705444 2389.777588,728.955688 
M2651.714111,418.869751 
	C2651.950195,421.072815 2652.186279,423.275879 2652.409668,425.361572 
	C2657.859131,425.361572 2662.636475,425.361572 2667.303955,425.361572 
	C2667.303955,419.828735 2667.303955,415.042328 2667.303955,410.389252 
	C2661.800049,410.389252 2657.019287,410.389252 2652.013184,410.389252 
	C2651.891357,413.080597 2651.802734,415.041565 2651.714111,418.869751 
z"/>
<path fill="#EBEBEB" opacity="1.000000" stroke="none" 
	d="
M2946.999756,1504.000000 
	C2946.000000,1003.943909 2946.000000,503.887878 2946.000000,2.915906 
	C2948.664795,2.000000 2951.329834,2.000000 2953.996094,2.000000 
	C2953.997314,502.666656 2953.997314,1003.333313 2953.996582,1504.000000 
	C2951.996826,1504.000000 2949.998291,1504.000000 2946.999756,1504.000000 
z"/>
<path fill="#209520" opacity="1.000000" stroke="none" 
	d="
M258.992432,951.582520 
	C276.446747,955.673828 293.570526,959.803284 310.318420,965.117493 
	C377.077301,986.300415 441.869293,1012.419067 504.738373,1043.332275 
	C527.804260,1054.673950 551.653992,1064.047729 577.077148,1068.759399 
	C595.921204,1072.251831 614.697693,1072.719360 633.588806,1068.342407 
	C646.629639,1065.321045 657.549866,1058.395264 668.145142,1050.990112 
	C675.736145,1045.684570 679.360352,1037.089600 682.243347,1028.463257 
	C687.785950,1011.879395 690.057983,994.705566 690.267639,977.326416 
	C690.456482,961.677002 690.418091,945.978271 689.416931,930.369507 
	C686.143127,879.330994 688.874756,828.503662 693.048706,777.640686 
	C694.216003,763.416565 697.737061,750.276123 703.108521,737.268188 
	C710.986816,718.189636 718.553223,698.976685 725.875610,679.678040 
	C727.732544,674.784119 730.518738,672.335449 735.480652,670.870544 
	C786.886841,655.693665 838.240784,640.339111 889.567017,624.893433 
	C894.028198,623.550903 897.708679,623.813843 901.903381,626.020142 
	C945.398682,648.897705 985.753174,676.523254 1024.443604,706.678101 
	C1026.493652,708.275940 1028.101562,710.487488 1029.746338,712.548218 
	C1032.237305,715.669128 1034.498291,718.974121 1037.000854,722.085205 
	C1044.270142,731.122620 1052.683716,738.383789 1065.444824,739.059021 
	C1065.595703,742.420776 1065.828735,745.350708 1065.843750,748.281799 
	C1066.184570,814.688416 1054.681152,878.904541 1029.307251,940.362061 
	C999.699524,1012.074463 955.737488,1073.616943 897.187622,1124.674683 
	C843.139954,1171.806152 781.778870,1205.674072 713.011169,1225.854004 
	C643.865723,1246.144775 573.399536,1250.813110 502.302551,1239.744385 
	C401.657410,1224.075195 314.279114,1180.943359 240.471588,1110.385254 
	C233.219315,1103.452271 231.677277,1096.707397 232.773697,1087.515137 
	C238.227142,1041.793579 247.237915,996.772339 258.992432,951.582520 
z"/>
<path fill="#209520" opacity="1.000000" stroke="none" 
	d="
M400.957520,296.903809 
	C548.012024,240.589310 705.984802,260.573242 826.820984,334.085754 
	C774.498474,383.849426 729.486084,438.876068 699.254761,504.764862 
	C696.445984,504.764862 694.141541,504.866760 691.848267,504.750214 
	C594.062622,499.780640 503.355194,522.222107 421.087921,575.854736 
	C362.204620,614.242615 312.731415,662.608215 277.133453,723.378235 
	C258.346100,755.450562 244.117966,790.198303 227.941757,823.791321 
	C225.065643,829.764099 222.732162,835.998230 220.323593,841.696533 
	C177.523697,836.872192 135.318237,832.114868 92.988174,827.343506 
	C58.918011,611.837646 177.420837,384.089966 400.957520,296.903809 
z"/>
<path fill="#249724" opacity="1.000000" stroke="none" 
	d="
M2531.951660,678.245605 
	C2533.272705,680.983765 2534.291992,683.047302 2535.700684,685.898682 
	C2626.811279,674.037781 2706.469727,637.508667 2775.686523,576.522217 
	C2774.050537,573.752258 2772.671387,571.568298 2771.437500,569.305115 
	C2761.760742,551.555481 2765.728027,530.607361 2781.164062,517.795593 
	C2796.015381,505.469147 2816.776611,505.127075 2831.946045,516.958984 
	C2847.555420,529.133972 2852.419434,550.808960 2843.453125,568.239441 
	C2834.390381,585.857849 2815.680908,594.157776 2796.219482,588.630615 
	C2791.206299,587.206909 2787.800293,587.510010 2783.695312,591.111755 
	C2714.157715,652.125305 2633.385986,688.737122 2541.880615,701.850525 
	C2540.573730,702.037781 2539.283203,702.357361 2537.998535,702.670044 
	C2537.698242,702.743103 2537.452393,703.040833 2537.181641,703.235107 
	C2529.488770,726.143555 2516.962646,737.848572 2498.962158,738.341797 
	C2476.024414,738.970337 2462.344727,726.807617 2455.671875,705.982971 
	C2416.777832,698.243774 2396.697021,675.617188 2389.421631,639.946167 
	C2354.609131,627.655090 2337.797607,605.986877 2340.831543,577.192322 
	C2342.517822,561.186584 2349.596436,548.001160 2361.979736,537.712402 
	C2374.105225,527.637695 2388.422363,524.198669 2404.238770,524.788757 
	C2414.987061,492.452148 2430.988037,463.447174 2451.350342,437.041443 
	C2435.587891,415.027191 2435.193115,398.610809 2449.832031,385.242279 
	C2463.271729,372.968994 2480.448975,374.253326 2497.744141,389.163269 
	C2499.233398,388.277008 2500.985840,387.441925 2502.506836,386.298859 
	C2552.540039,348.697144 2608.696533,328.646271 2671.398193,327.669220 
	C2677.450684,327.574921 2681.965820,325.814026 2686.687012,322.068604 
	C2706.487549,306.360596 2731.733398,307.586243 2750.658936,324.475647 
	C2753.304199,326.836182 2756.334229,329.092194 2759.587402,330.392578 
	C2785.029297,340.562866 2799.165283,360.180145 2798.753418,387.297119 
	C2797.738037,454.147949 2774.354980,512.150146 2728.518555,560.942505 
	C2711.980713,578.546753 2693.229004,593.433044 2672.269531,605.456726 
	C2668.617676,607.551636 2666.211914,610.107788 2664.686035,614.137817 
	C2656.181152,636.599060 2628.466797,646.484558 2608.208008,635.606506 
	C2605.323486,634.057739 2601.064697,633.756958 2597.785645,634.467102 
	C2576.133545,639.157104 2554.224854,639.811890 2532.183594,640.166626 
	C2497.124756,640.730713 2470.162842,613.119263 2471.635498,578.812134 
	C2472.547852,557.560547 2476.574219,537.171204 2484.809814,517.654724 
	C2487.069336,512.299500 2488.456299,507.146606 2488.089844,501.297638 
	C2485.974121,467.528015 2507.442871,430.744537 2543.316650,416.265900 
	C2578.860840,401.920258 2618.162354,411.190369 2643.835449,439.553772 
	C2653.781494,450.542145 2654.275879,465.473511 2645.007080,476.962830 
	C2643.547363,478.772308 2641.857910,480.403107 2640.215088,482.057251 
	C2613.438721,509.020233 2586.225098,535.567139 2560.056152,563.107056 
	C2547.667236,576.144958 2527.281006,579.352783 2513.335693,561.851746 
	C2507.349365,554.338989 2501.748047,546.519653 2495.537598,538.262512 
	C2494.865479,539.690002 2493.728271,541.161255 2493.486328,542.767456 
	C2491.558105,555.570190 2488.656738,568.361816 2488.244141,581.227051 
	C2487.542969,603.104675 2501.892578,620.333923 2523.369385,622.856262 
	C2545.566895,625.463196 2567.778076,623.134766 2591.197266,618.843933 
	C2584.595215,604.236389 2584.013916,590.426331 2592.378906,577.248474 
	C2597.955078,568.463562 2605.738770,562.483582 2615.717529,559.475586 
	C2636.821533,553.114014 2655.479248,563.561035 2667.227295,588.738892 
	C2669.500488,587.528687 2671.878662,586.533386 2673.966797,585.111755 
	C2743.316406,537.899170 2779.534912,472.405029 2782.372314,388.503601 
	C2782.836426,374.792358 2778.898682,362.997681 2767.114502,353.217896 
	C2766.660400,355.734802 2766.125977,357.416504 2766.085938,359.109802 
	C2765.366699,389.799622 2741.397461,412.227539 2712.513184,409.406769 
	C2680.179932,406.249237 2662.420166,374.434174 2669.439941,349.168091 
	C2669.785645,347.923553 2669.726074,346.566498 2669.997559,343.826416 
	C2659.049316,344.778290 2648.458496,345.146851 2638.044434,346.699554 
	C2591.652832,353.616455 2549.662598,371.149811 2512.304443,399.652405 
	C2507.418701,403.380127 2504.033691,406.865021 2503.601562,414.053070 
	C2502.713135,428.829926 2490.455322,440.601593 2475.474365,441.898193 
	C2469.405762,442.423431 2465.962646,444.993958 2462.510010,449.450439 
	C2446.464600,470.160461 2433.993164,492.837433 2424.398926,517.147949 
	C2422.941406,520.841064 2421.826904,524.669495 2420.425049,528.815430 
	C2444.492920,541.947144 2457.714600,561.538147 2454.443359,589.220825 
	C2451.213379,616.553589 2433.884766,632.182251 2408.265137,639.253845 
	C2406.906738,661.865051 2429.827881,685.629944 2455.381836,688.013245 
	C2455.929688,687.087585 2456.777100,686.058289 2457.201416,684.877197 
	C2463.194580,668.196228 2474.982422,658.349731 2492.549072,656.672485 
	C2509.843506,655.021362 2522.734619,662.893494 2531.951660,678.245605 
z"/>
<path fill="#259723" opacity="1.000000" stroke="none" 
	d="
M2136.171387,1108.960693 
	C2129.261963,1108.960327 2123.324951,1108.960327 2115.766602,1108.960327 
	C2130.684326,1023.358032 2145.550293,939.020264 2160.599121,854.618408 
	C2162.653809,854.265076 2163.923828,853.852783 2165.192871,853.856628 
	C2202.164307,853.969299 2239.138672,853.917847 2276.105957,854.386169 
	C2288.547119,854.543762 2300.592529,857.735291 2311.333740,864.225647 
	C2326.641113,873.474976 2334.113281,887.666809 2333.284424,905.264771 
	C2332.280518,926.583191 2328.731445,947.652771 2321.644531,967.879578 
	C2316.783447,981.753784 2307.933350,992.858398 2295.692627,1001.178467 
	C2293.811035,1002.457458 2292.199463,1004.133667 2289.741943,1006.245911 
	C2300.109863,1039.771484 2310.491943,1073.342896 2321.169434,1107.869141 
	C2317.602295,1108.324829 2315.114990,1108.907471 2312.625000,1108.918335 
	C2294.637939,1108.996582 2276.649658,1108.999512 2258.662354,1108.941284 
	C2250.175293,1108.913696 2250.145508,1108.838257 2247.627197,1100.842529 
	C2239.229004,1074.176758 2230.862305,1047.500977 2222.454346,1020.838440 
	C2221.769775,1018.667297 2220.862793,1016.566223 2219.964600,1014.180725 
	C2212.784668,1014.180725 2205.932861,1014.180725 2198.200195,1014.180725 
	C2193.324951,1045.713379 2188.512207,1076.840698 2183.546143,1108.961182 
	C2167.642334,1108.961182 2152.393311,1108.961182 2136.171387,1108.960693 
M2263.978027,946.698730 
	C2263.934082,939.798950 2264.823486,932.730530 2263.614746,926.041199 
	C2262.027100,917.253906 2256.345459,911.508728 2246.984375,909.785217 
	C2236.433838,907.842773 2225.964600,908.684448 2214.478271,908.884277 
	C2211.416260,929.423035 2208.462158,949.238708 2205.326660,970.269775 
	C2216.473877,970.269775 2226.005615,970.406738 2235.531982,970.238220 
	C2250.353271,969.976074 2259.786133,962.587036 2263.978027,946.698730 
z"/>
<path fill="#269724" opacity="1.000000" stroke="none" 
	d="
M2406.340820,868.375610 
	C2422.944824,858.076172 2440.908447,854.334412 2459.171875,852.563965 
	C2478.068604,850.731995 2497.122070,850.287598 2515.905273,854.245300 
	C2534.370850,858.136047 2551.202148,865.324768 2560.972900,882.579468 
	C2572.219727,902.440247 2570.430908,922.808289 2560.845459,942.881775 
	C2559.290283,946.138184 2556.748047,947.915344 2552.926270,947.886047 
	C2534.940918,947.748047 2516.954590,947.716431 2498.968994,947.582703 
	C2498.480957,947.579102 2497.998047,946.847839 2497.313965,946.295654 
	C2498.811523,941.729370 2500.833008,937.167847 2501.774902,932.393311 
	C2504.595703,918.096069 2496.699707,907.342712 2482.232666,905.523254 
	C2471.592529,904.185059 2460.968750,903.978088 2450.606689,907.519165 
	C2442.080811,910.432739 2436.205811,915.611694 2435.105225,925.117249 
	C2433.983643,934.799927 2437.682129,942.191040 2446.001221,946.891907 
	C2451.470459,949.982422 2457.267578,952.714539 2463.224609,954.675781 
	C2476.816895,959.150879 2490.592285,963.070801 2504.303711,967.182861 
	C2515.952393,970.676392 2526.236328,976.296326 2535.286377,984.658813 
	C2544.333740,993.018860 2549.816162,1003.124695 2551.087891,1014.983582 
	C2553.218506,1034.857910 2550.813965,1054.236450 2541.066650,1072.148560 
	C2532.735107,1087.459106 2519.903564,1097.623535 2503.820557,1103.742432 
	C2475.748779,1114.422729 2446.567627,1115.560059 2417.156250,1112.528198 
	C2406.642822,1111.444214 2396.088379,1109.101196 2385.999756,1105.916870 
	C2367.790771,1100.169189 2356.057861,1087.630493 2352.053467,1068.719849 
	C2349.048096,1054.525879 2349.943115,1040.406860 2353.731201,1026.245605 
	C2374.851074,1026.245605 2395.070312,1026.245605 2415.892822,1026.245605 
	C2415.892822,1029.549561 2415.925293,1032.405884 2415.887207,1035.260986 
	C2415.733887,1046.769165 2420.726318,1054.438599 2431.775146,1057.868042 
	C2445.140869,1062.016602 2458.857666,1062.036621 2472.088867,1057.588623 
	C2488.130859,1052.195923 2491.455322,1033.294556 2478.060547,1022.767517 
	C2471.899658,1017.925476 2464.406006,1014.429504 2457.037354,1011.550659 
	C2444.336426,1006.588562 2431.271240,1002.555664 2418.339600,998.189697 
	C2406.874023,994.318604 2396.581299,988.671936 2387.336670,980.629089 
	C2375.715332,970.518005 2369.854736,957.859802 2369.630615,942.949036 
	C2369.363037,925.158264 2371.900391,907.788513 2381.715576,892.188538 
	C2387.877686,882.394592 2395.683594,874.479675 2406.340820,868.375610 
z"/>
<path fill="#259724" opacity="1.000000" stroke="none" 
	d="
M2079.168457,1053.823730 
	C2083.687012,1054.420044 2084.002930,1056.896484 2083.483154,1059.797974 
	C2080.614014,1075.810303 2077.726562,1091.819336 2074.754639,1108.335938 
	C2015.701538,1108.335938 1957.193726,1108.335938 1898.713379,1108.335938 
	C1897.694702,1100.845215 1937.596436,870.028992 1942.637573,854.284424 
	C2000.983154,854.284424 2059.486816,854.284424 2118.682373,854.284424 
	C2118.682373,856.569763 2118.955322,858.492126 2118.638672,860.311829 
	C2116.297852,873.763000 2113.837891,887.193420 2111.418213,900.630920 
	C2110.017822,908.407776 2109.793701,908.770081 2101.782227,908.789185 
	C2070.457031,908.863708 2039.131714,908.822266 2007.806396,908.823792 
	C2004.203735,908.823975 2000.600952,908.823792 1995.840942,908.823792 
	C1993.034546,924.791626 1990.357666,940.022339 1987.432861,956.664124 
	C2019.072144,956.664124 2049.538818,956.664124 2081.624512,956.664124 
	C2078.292725,975.655823 2075.218506,993.179504 2071.963135,1011.735107 
	C2040.512573,1011.735107 2009.685791,1011.735107 1977.757812,1011.735107 
	C1975.350098,1025.621216 1973.106201,1038.561890 1970.655151,1052.697021 
	C1989.646973,1054.776245 2007.495361,1053.487549 2025.274414,1053.718262 
	C2042.933716,1053.947388 2060.598389,1053.778931 2079.168457,1053.823730 
z"/>
<path fill="#259724" opacity="1.000000" stroke="none" 
	d="
M2585.223633,1108.953125 
	C2582.729736,1108.739746 2581.108643,1108.531738 2578.123779,1108.148804 
	C2592.997559,1023.695618 2607.805664,939.615112 2622.570801,855.779541 
	C2629.919922,853.365967 2787.913330,852.795288 2800.490967,855.242737 
	C2797.405273,872.712830 2794.312988,890.220764 2791.026855,908.824402 
	C2786.927246,908.824402 2783.353027,908.824524 2779.778809,908.824402 
	C2749.800293,908.823547 2719.821777,908.820984 2689.843262,908.824341 
	C2687.178711,908.824646 2684.512939,908.817993 2681.849854,908.895081 
	C2678.325195,908.997009 2676.448242,910.856873 2675.877197,914.348633 
	C2673.678223,927.791321 2671.395020,941.220215 2668.910400,956.043213 
	C2673.198730,956.357727 2676.635010,956.818604 2680.072266,956.828064 
	C2703.722168,956.893555 2727.371826,956.864868 2751.021729,956.866333 
	C2754.547607,956.866516 2758.073242,956.866272 2762.873047,956.866272 
	C2759.481201,975.980591 2756.372070,993.501038 2753.086426,1012.017029 
	C2748.536865,1012.017029 2744.971436,1012.016968 2741.406006,1012.017090 
	C2717.090088,1012.017761 2692.774170,1011.987122 2668.458252,1012.034729 
	C2658.881592,1012.053528 2658.916504,1012.139160 2657.252197,1021.684448 
	C2655.492676,1031.775391 2653.658203,1041.853149 2651.675293,1052.949341 
	C2662.016602,1054.449829 2671.260742,1053.577637 2680.430664,1053.732666 
	C2689.754639,1053.890503 2699.083496,1053.768066 2708.410156,1053.768066 
	C2717.736816,1053.768188 2727.063477,1053.768066 2736.390137,1053.767944 
	C2745.639160,1053.767944 2754.887939,1053.767822 2765.707764,1053.767822 
	C2762.384033,1072.513306 2759.287109,1089.979980 2756.382568,1106.361450 
	C2755.268066,1107.549927 2755.069580,1107.834351 2754.803955,1108.024658 
	C2754.540283,1108.213501 2754.209473,1108.426147 2753.907227,1108.427124 
	C2697.970215,1108.615967 2642.033203,1108.786743 2585.223633,1108.953125 
z"/>
<path fill="#259724" opacity="1.000000" stroke="none" 
	d="
M1224.248535,950.834717 
	C1223.607788,954.386536 1224.258667,956.428406 1227.318848,956.668518 
	C1229.969116,956.876465 1232.641113,956.852539 1235.303589,956.853882 
	C1258.959839,956.866333 1282.616089,956.861450 1306.272339,956.861633 
	C1309.519043,956.861694 1312.765869,956.861694 1317.430542,956.861694 
	C1314.034912,975.789368 1310.888672,993.327820 1307.569214,1011.830933 
	C1276.186768,1011.830933 1245.328369,1011.830933 1213.752319,1011.830933 
	C1210.654907,1025.864868 1208.190674,1039.026978 1206.866333,1053.788940 
	C1244.980957,1053.788940 1281.796387,1053.788940 1320.159424,1053.788940 
	C1316.817383,1072.732178 1313.727905,1090.243774 1310.543091,1108.296021 
	C1251.133423,1108.296021 1192.408081,1108.296021 1132.600464,1108.296021 
	C1147.552368,1023.438232 1162.376465,939.306091 1177.312866,854.536621 
	C1236.283569,854.536621 1294.761353,854.536621 1354.506348,854.536621 
	C1353.103882,872.522644 1348.543945,890.027588 1345.479004,908.825012 
	C1341.215698,908.825012 1337.628540,908.825012 1334.041382,908.825012 
	C1303.055054,908.825317 1272.068604,908.800720 1241.082275,908.840576 
	C1231.497681,908.852905 1231.437500,908.922668 1229.764526,918.438354 
	C1227.919800,928.930603 1226.200562,939.445007 1224.248535,950.834717 
z"/>
<path fill="#259723" opacity="1.000000" stroke="none" 
	d="
M1842.087280,1028.324463 
	C1831.756714,1055.456909 1821.730591,1081.873901 1811.672852,1108.374756 
	C1773.723633,1108.374756 1736.543945,1108.374756 1697.958252,1108.374756 
	C1697.073608,1023.672913 1696.195068,939.545105 1695.305664,854.391602 
	C1718.237427,853.176758 1740.382446,854.004700 1763.607910,853.890869 
	C1765.192871,864.764099 1764.110840,875.319275 1764.240845,885.792358 
	C1764.373169,896.455505 1764.186401,907.122620 1764.141357,917.787964 
	C1764.096436,928.453369 1764.052124,939.118713 1764.011841,949.784119 
	C1763.971802,960.449524 1763.939087,971.114929 1763.899902,981.780334 
	C1763.860840,992.445740 1763.801392,1003.111023 1763.780518,1013.776489 
	C1763.759766,1024.393555 1763.776001,1035.010620 1763.776001,1045.501831 
	C1771.720581,1046.674438 1771.815552,1046.708008 1774.215698,1039.923096 
	C1780.212280,1022.970886 1786.136597,1005.992981 1792.049683,989.011353 
	C1807.052002,945.926331 1822.029053,902.832520 1837.034180,859.748474 
	C1837.580200,858.181091 1838.314453,856.679321 1839.237427,854.491577 
	C1861.545776,854.491577 1884.041382,854.491577 1907.906982,854.491577 
	C1885.908081,912.621338 1864.149902,970.115173 1842.087280,1028.324463 
z"/>
<path fill="#269725" opacity="1.000000" stroke="none" 
	d="
M1386.549072,1207.371094 
	C1367.781860,1207.435181 1349.883545,1207.435181 1332.147217,1207.435181 
	C1331.101807,1199.156738 1374.279297,951.444214 1378.880493,938.491821 
	C1394.729492,938.491821 1410.966797,938.637817 1427.198608,938.402161 
	C1432.019287,938.332153 1430.744873,943.162659 1433.758057,945.350891 
	C1449.682617,934.765747 1467.625610,932.602844 1486.215698,934.507996 
	C1492.454468,935.147278 1498.775879,936.423950 1504.695679,938.465027 
	C1523.731567,945.028381 1535.460815,961.029785 1534.787842,983.274780 
	C1533.910645,1012.263977 1529.743896,1041.124268 1519.405273,1068.372192 
	C1503.327393,1110.746216 1460.249390,1120.042236 1428.232178,1110.453613 
	C1423.574829,1109.058960 1419.454712,1105.864746 1415.094238,1103.487915 
	C1413.474609,1102.605103 1411.878906,1101.678101 1409.507202,1100.339478 
	C1408.871216,1103.028320 1408.340576,1104.855347 1408.013306,1106.718018 
	C1402.772705,1136.547607 1397.644165,1166.397461 1392.233643,1196.196045 
	C1391.523438,1200.107056 1392.706421,1205.228027 1386.549072,1207.371094 
M1422.780762,1023.697388 
	C1421.337036,1031.529175 1419.685547,1039.329956 1418.510620,1047.201904 
	C1417.434082,1054.414673 1419.352173,1057.438110 1425.965332,1060.477417 
	C1440.472656,1067.144897 1460.371460,1060.086670 1464.882202,1044.972412 
	C1468.922119,1031.436279 1470.943237,1017.154114 1472.436401,1003.050842 
	C1473.472412,993.265747 1467.151855,986.489136 1457.391602,985.462463 
	C1451.251099,984.816528 1444.808594,985.282410 1438.716187,986.409912 
	C1431.960571,987.659973 1427.852783,992.264465 1426.853394,999.427002 
	C1425.799438,1006.980103 1424.415161,1014.487122 1422.780762,1023.697388 
z"/>
<path fill="#229622" opacity="1.000000" stroke="none" 
	d="
M592.736450,909.251526 
	C605.497437,935.677368 617.907654,961.439270 630.420593,987.414429 
	C627.260437,992.244873 622.697632,993.725281 617.622498,994.259644 
	C608.135925,995.258545 598.848572,994.138794 590.421570,989.724915 
	C586.809387,987.832886 583.692078,984.418579 581.190796,981.068176 
	C534.382263,918.369263 487.696594,855.578613 440.993561,792.800903 
	C420.324829,765.018250 399.668304,737.226501 379.025421,709.424561 
	C376.880005,706.535156 374.865509,703.548523 372.384155,700.031433 
	C395.771332,670.306030 422.245728,644.368652 451.899872,622.214722 
	C452.746674,622.214722 453.073578,622.141174 453.342865,622.234314 
	C453.645935,622.339111 454.026184,622.531616 454.152496,622.792725 
	C500.242706,718.051636 546.314087,813.319641 592.736450,909.251526 
z"/>
<path fill="#229622" opacity="1.000000" stroke="none" 
	d="
M592.456665,851.613708 
	C554.067078,768.500854 515.991638,686.074646 477.622742,603.013245 
	C515.005798,578.504395 555.138000,565.831726 600.097229,565.491577 
	C601.280518,574.627014 602.494385,583.105469 603.462646,591.611877 
	C612.424255,670.347717 620.748169,749.162476 630.532898,827.795532 
	C635.241150,865.632141 635.551697,903.470154 635.239502,941.699646 
	C620.124573,912.321716 606.841675,882.121094 592.456665,851.613708 
z"/>
<path fill="#229623" opacity="1.000000" stroke="none" 
	d="
M532.168152,963.885864 
	C528.777100,963.055908 525.138794,962.758118 522.032471,961.315186 
	C483.386749,943.363037 444.397583,926.079956 406.356415,906.918030 
	C372.875427,890.053223 337.814209,877.730530 302.463287,865.885803 
	C297.448364,864.205444 292.411682,862.589905 286.479065,860.647888 
	C303.126373,815.879028 323.373077,773.568726 350.198639,733.555298 
	C352.361511,735.966980 353.941498,737.551453 355.322205,739.293823 
	C413.664154,812.919128 471.988831,886.558289 530.308167,960.201538 
	C530.926331,960.982056 531.446777,961.839966 532.029785,963.313171 
	C532.046814,963.964600 532.168152,963.885864 532.168152,963.885864 
z"/>
<path fill="#229623" opacity="1.000000" stroke="none" 
	d="
M928.550903,555.475525 
	C892.468872,514.445496 856.865540,473.943451 820.456482,432.524902 
	C840.557983,410.895935 863.263794,392.870728 887.502930,375.407745 
	C896.838440,384.120331 905.936218,392.376038 914.702759,400.969696 
	C916.716797,402.944000 917.937927,405.953278 918.941406,408.699127 
	C940.186523,466.831848 961.356873,524.991882 982.495361,583.163452 
	C983.354614,585.528259 983.760193,588.057983 984.831177,592.315979 
	C974.766113,587.035339 966.483032,582.244873 957.829102,578.259644 
	C946.451904,573.020386 936.321106,566.413574 928.550903,555.475525 
z"/>
<path fill="#299929" opacity="1.000000" stroke="none" 
	d="
M2389.898438,446.225037 
	C2375.787598,431.992126 2362.142090,418.305756 2348.586914,404.530945 
	C2341.488770,397.317932 2338.892578,388.715790 2341.708984,378.865509 
	C2346.724609,361.320251 2367.334717,354.621002 2381.873535,365.832458 
	C2385.021240,368.259583 2387.561279,371.463379 2390.644287,373.988312 
	C2394.883789,377.460175 2399.914062,377.289001 2403.270508,373.928864 
	C2406.716553,370.478912 2406.856445,365.780151 2403.420410,361.294006 
	C2402.012451,359.455566 2400.239990,357.891022 2398.595215,356.239868 
	C2383.073975,340.660004 2367.521240,325.111511 2352.040039,309.491943 
	C2349.470703,306.899719 2346.844238,304.242981 2344.862061,301.211853 
	C2337.927734,290.606293 2339.720459,276.778168 2348.832520,268.393097 
	C2358.309814,259.671967 2372.597168,259.213287 2382.596924,267.711182 
	C2387.406006,271.797974 2391.674316,276.527252 2396.135010,281.017639 
	C2414.922119,299.928558 2433.666260,318.881958 2452.476074,337.770325 
	C2459.201660,344.523987 2464.208008,345.440308 2468.681641,340.998352 
	C2473.159668,336.552032 2472.238037,331.545959 2465.514648,324.714996 
	C2459.438232,318.541260 2453.253906,312.473450 2447.129883,306.346405 
	C2441.129639,300.343323 2438.208008,293.063690 2438.993408,284.628815 
	C2440.751709,265.742493 2461.916992,255.462143 2477.978516,265.594055 
	C2479.656250,266.652405 2481.253418,267.911438 2482.669678,269.300140 
	C2502.644531,288.887634 2522.581055,308.513672 2543.506104,329.093231 
	C2538.965820,333.640900 2535.359131,337.253479 2531.354248,341.264832 
	C2528.483398,338.543549 2526.052490,336.350555 2523.745361,334.034515 
	C2507.754395,317.981750 2491.791260,301.901855 2475.813721,285.835815 
	C2474.169434,284.182404 2472.615723,282.407227 2470.804443,280.958130 
	C2466.294922,277.350647 2461.763184,277.352936 2458.211914,280.758179 
	C2454.810547,284.019135 2454.574219,289.042603 2457.843262,293.415588 
	C2459.229004,295.269470 2460.996582,296.842896 2462.629150,298.506195 
	C2468.697510,304.688293 2475.055664,310.611389 2480.799072,317.081299 
	C2490.723877,328.261932 2490.233398,343.234253 2480.054688,353.020660 
	C2469.871338,362.811523 2454.982422,362.630859 2444.088867,352.545135 
	C2442.134277,350.735626 2440.305176,348.790070 2438.424561,346.901093 
	C2418.205811,326.594086 2397.989502,306.284912 2377.768799,285.980133 
	C2376.123291,284.327637 2374.567383,282.557892 2372.765137,281.094666 
	C2368.215332,277.400360 2363.793457,277.309143 2360.169678,280.636780 
	C2356.404053,284.094543 2356.329590,289.280182 2360.153076,294.057312 
	C2361.603027,295.868896 2363.370117,297.429626 2365.015137,299.082092 
	C2381.236084,315.375793 2397.410400,331.716553 2413.708740,347.932220 
	C2421.520508,355.704132 2424.304443,364.903412 2421.178711,375.343506 
	C2415.990234,392.673798 2394.737793,398.847717 2380.648682,387.328552 
	C2377.564209,384.806732 2375.037354,381.587921 2371.891113,379.160645 
	C2367.983643,376.146149 2363.192383,376.534515 2360.004395,379.550659 
	C2356.902832,382.484955 2356.336914,387.484680 2359.051758,391.440216 
	C2360.540771,393.609589 2362.591797,395.407684 2364.468750,397.294098 
	C2378.099854,410.993958 2391.719482,424.705475 2405.411865,438.343750 
	C2410.573730,443.485229 2413.887939,449.403229 2414.136230,456.819305 
	C2414.510254,467.986908 2409.476074,476.165009 2399.722900,481.096283 
	C2390.203613,485.909210 2380.592041,484.974030 2372.673828,477.868713 
	C2362.552246,468.785980 2353.157471,458.893127 2342.886230,448.795471 
	C2347.306641,444.800354 2350.921631,441.533112 2355.300537,437.575317 
	C2362.263428,444.529327 2369.482666,451.752563 2376.719482,458.958069 
	C2378.842773,461.072113 2380.815430,463.410980 2383.212646,465.159637 
	C2387.132812,468.019562 2391.977539,467.534607 2395.088135,464.422852 
	C2398.337158,461.172607 2398.734131,456.840271 2395.785156,452.616638 
	C2394.276855,450.456146 2392.213623,448.683105 2389.898438,446.225037 
z"/>
<path fill="#299929" opacity="1.000000" stroke="none" 
	d="
M2773.494385,752.553223 
	C2769.380371,767.384521 2751.683594,776.761658 2736.951660,768.459961 
	C2733.541260,766.538025 2730.536621,763.724243 2727.728516,760.934753 
	C2711.894775,745.204895 2696.179443,729.356018 2680.419922,713.551514 
	C2678.774170,711.901123 2677.229736,710.117615 2675.418213,708.671387 
	C2671.023926,705.163513 2666.299072,705.183533 2662.788574,708.516846 
	C2659.244141,711.882324 2658.905029,716.709656 2662.353760,721.110168 
	C2665.013916,724.504456 2668.442139,727.310974 2670.996338,730.771729 
	C2680.427490,743.551086 2676.465332,760.983276 2662.453613,768.395081 
	C2653.029053,773.380188 2643.053711,773.381592 2635.357178,766.143188 
	C2619.643555,751.364990 2604.886719,735.569580 2589.308594,719.759399 
	C2593.027588,716.353027 2596.584961,713.094727 2600.615967,709.402710 
	C2602.218018,710.817017 2604.239746,712.428040 2606.062256,714.239197 
	C2617.404541,725.509888 2628.689941,736.837830 2640.026855,748.114014 
	C2641.908691,749.985962 2643.730469,752.065979 2645.967529,753.400208 
	C2649.764893,755.665100 2653.742920,755.371033 2656.940918,752.116272 
	C2660.082031,748.919250 2660.761719,745.063721 2658.190186,741.206848 
	C2656.729980,739.017151 2654.958252,736.917419 2652.944824,735.234131 
	C2641.086670,725.320251 2640.555420,707.292847 2650.728271,696.951233 
	C2659.209229,688.329590 2676.382080,685.060486 2689.751709,699.271851 
	C2705.494873,716.006287 2722.085449,731.944397 2738.335693,748.200439 
	C2740.212646,750.078064 2742.035645,752.177917 2744.286377,753.476685 
	C2748.107422,755.681458 2752.077393,755.329102 2755.236084,752.014587 
	C2758.350098,748.747192 2758.858643,744.877502 2756.302490,741.069702 
	C2754.836182,738.884888 2752.904541,736.984802 2751.035645,735.102051 
	C2740.240234,724.226868 2729.203613,713.581360 2718.686523,702.444641 
	C2715.132324,698.680908 2711.851074,694.054443 2710.197021,689.222534 
	C2706.294678,677.825195 2711.300049,665.945740 2721.456055,659.925903 
	C2731.815186,653.785583 2743.432373,655.125244 2752.551758,664.152771 
	C2771.727539,683.135315 2790.677246,702.346008 2809.722412,721.460510 
	C2811.603516,723.348328 2813.397949,725.339661 2815.413574,727.072327 
	C2820.073242,731.078430 2825.280029,731.268005 2828.806641,727.726135 
	C2832.475830,724.040894 2832.361084,719.315002 2828.306396,714.304993 
	C2826.846191,712.500732 2825.091797,710.932007 2823.450439,709.277222 
	C2809.608887,695.323486 2795.589844,681.540588 2781.973389,667.370911 
	C2771.630127,656.607117 2771.697021,641.487793 2781.531006,631.402466 
	C2791.571289,621.105469 2807.215332,620.930420 2818.222412,631.406677 
	C2827.357422,640.101379 2836.087646,649.221436 2845.795898,658.953552 
	C2841.411865,662.556274 2837.635986,665.658997 2832.984619,669.481323 
	C2826.254150,662.684326 2818.853271,655.158325 2811.384521,647.700562 
	C2809.273193,645.592346 2807.152100,643.402954 2804.699707,641.748596 
	C2800.918701,639.197693 2797.008057,639.702271 2793.747070,642.835510 
	C2790.458008,645.995972 2790.048584,649.940491 2792.293213,653.783691 
	C2793.607666,656.033630 2795.607422,657.924866 2797.473389,659.804321 
	C2810.381592,672.806641 2823.351562,685.747803 2836.261230,698.748718 
	C2838.603027,701.107056 2841.013672,703.465149 2842.956787,706.139771 
	C2850.656250,716.737427 2849.346924,730.930664 2840.034912,739.808777 
	C2830.664551,748.742676 2816.568359,749.278931 2806.305176,740.967102 
	C2803.985596,739.088501 2801.954590,736.846375 2799.838867,734.723816 
	C2781.731201,716.556274 2763.639893,698.372681 2745.527832,680.209412 
	C2743.648926,678.325134 2741.862305,676.258362 2739.692627,674.773804 
	C2735.753906,672.078796 2730.751953,672.690002 2727.871094,675.972595 
	C2724.846436,679.418762 2724.794922,683.350830 2727.059082,687.066650 
	C2728.416748,689.295410 2730.515869,691.095459 2732.384766,692.986206 
	C2742.923096,703.647339 2753.347412,714.427124 2764.100342,724.867981 
	C2771.822998,732.366638 2775.793213,740.910889 2773.494385,752.553223 
z"/>
<path fill="#279826" opacity="1.000000" stroke="none" 
	d="
M1641.853027,1101.472412 
	C1622.531982,1116.032471 1601.736084,1116.512695 1580.435181,1110.181519 
	C1566.334839,1105.990234 1558.368896,1094.366577 1558.216675,1078.062988 
	C1558.124390,1068.157959 1559.410156,1058.138184 1561.066040,1048.337036 
	C1566.718506,1014.882202 1572.793091,981.498413 1578.761230,948.097290 
	C1579.279053,945.199341 1580.197632,942.372925 1581.049438,939.046997 
	C1600.579346,939.046997 1619.719727,939.046997 1640.274292,939.046997 
	C1639.171631,946.610046 1638.332031,953.691833 1637.083374,960.700745 
	C1632.357178,987.228210 1627.469360,1013.726868 1622.718262,1040.250000 
	C1621.956787,1044.501099 1621.207031,1048.814209 1621.118408,1053.112427 
	C1620.976196,1059.995361 1623.772705,1062.922241 1630.733765,1063.013550 
	C1635.288330,1063.073242 1639.855469,1062.185547 1645.640503,1061.597900 
	C1644.551270,1074.952881 1647.040527,1088.145020 1641.853027,1101.472412 
z"/>
<path fill="#249724" opacity="1.000000" stroke="none" 
	d="
M894.282532,547.751038 
	C892.068481,547.506165 889.701233,547.686890 887.662964,546.953613 
	C847.220642,532.403015 805.666626,522.069336 763.510498,513.988220 
	C761.933533,513.685974 760.378540,513.268982 757.419312,512.581665 
	C770.742615,491.848511 784.998840,472.954285 801.760254,454.051361 
	C817.353882,469.717865 832.720764,485.142944 848.072083,500.583435 
	C863.310730,515.910645 878.533875,531.253357 893.975586,547.209045 
	C894.187317,547.828796 894.282532,547.751038 894.282532,547.751038 
z"/>
<path fill="#279827" opacity="1.000000" stroke="none" 
	d="
M1588.060547,881.482788 
	C1588.040405,878.603027 1588.029907,876.605896 1588.134277,874.614746 
	C1589.432129,849.894836 1603.115479,836.833496 1627.768188,837.027100 
	C1632.061157,837.060730 1636.417114,837.630432 1640.622681,838.523376 
	C1650.494019,840.619324 1656.958740,847.610840 1658.069580,857.776917 
	C1662.405884,897.459595 1638.931030,909.698303 1606.870972,904.843323 
	C1598.155396,903.523438 1588.319946,896.885925 1588.060547,881.482788 
z"/>
<path fill="#279827" opacity="1.000000" stroke="none" 
	d="
M660.981445,623.336365 
	C654.503967,659.802124 648.259827,695.463074 642.114685,730.558655 
	C636.637329,676.144043 631.075195,620.887512 625.412231,564.629150 
	C642.392395,562.421204 658.785339,563.590759 675.971375,563.955688 
	C670.898926,584.090698 666.056824,603.311096 660.981445,623.336365 
z"/>
<path fill="#279826" opacity="1.000000" stroke="none" 
	d="
M153.872162,1002.198364 
	C136.630325,972.341614 124.122208,945.352600 118.464760,925.440735 
	C141.914963,927.143616 164.638809,930.358154 187.039764,934.775391 
	C180.074448,963.263733 173.235291,991.236145 166.232025,1019.879700 
	C160.527802,1015.482117 158.333694,1008.425720 153.872162,1002.198364 
z"/>
<path fill="#279827" opacity="1.000000" stroke="none" 
	d="
M761.232056,590.998779 
	C763.191956,586.331421 764.832153,582.369080 766.801086,577.612427 
	C796.961365,583.706909 825.491943,593.744629 853.577637,605.177490 
	C853.581299,605.890137 853.585022,606.602844 853.588684,607.315491 
	C817.541992,616.636414 781.495361,625.957336 743.501526,635.781738 
	C748.846741,619.866699 755.396606,605.971863 761.232056,590.998779 
z"/>
<path fill="#2E9B2D" opacity="1.000000" stroke="none" 
	d="
M981.892334,482.035767 
	C986.852478,489.483368 992.182556,496.713440 996.711182,504.414825 
	C1020.955139,545.644409 1039.261597,589.363708 1051.054810,635.758667 
	C1051.353516,636.933472 1051.334839,638.189087 1051.580200,640.501160 
	C1040.990723,632.546936 1032.136841,625.608093 1027.571533,612.795593 
	C1012.176880,569.591125 995.256714,526.930237 979.596252,483.148163 
	C980.812500,482.168457 981.352417,482.102112 981.892334,482.035767 
z"/>
<path fill="#309C2F" opacity="1.000000" stroke="none" 
	d="
M2639.435059,294.667419 
	C2637.512207,296.181213 2635.863525,297.563049 2635.676025,299.120758 
	C2635.249512,302.662811 2635.541260,306.291382 2635.541260,310.551392 
	C2629.911377,310.551392 2625.106689,310.551392 2619.463379,310.551392 
	C2618.982422,305.571411 2618.489746,300.466766 2617.964600,295.029297 
	C2612.908936,294.751190 2608.342285,294.500031 2603.060547,294.209503 
	C2603.060547,289.157623 2603.060547,284.390900 2603.060547,278.500336 
	C2607.544434,278.212494 2612.343506,277.904419 2618.125977,277.533173 
	C2618.471191,272.724518 2618.815674,267.923035 2619.216797,262.331848 
	C2624.285156,262.331848 2629.344238,262.331848 2634.985352,262.331848 
	C2635.310547,267.271606 2635.628418,272.100464 2635.978760,277.422607 
	C2641.092285,277.773651 2645.923340,278.105316 2651.245605,278.470703 
	C2651.245605,283.781891 2651.245605,288.617279 2651.245605,294.615326 
	C2647.501221,294.615326 2643.937012,294.615326 2639.435059,294.667419 
z"/>
<path fill="#309C2F" opacity="1.000000" stroke="none" 
	d="
M2540.814697,771.584351 
	C2538.988281,770.043701 2537.377930,768.621643 2537.186768,767.029297 
	C2536.763916,763.508301 2537.054932,759.901794 2537.054932,755.846863 
	C2531.190918,755.413086 2526.361816,755.055908 2521.042480,754.662415 
	C2521.042480,749.331482 2521.042480,744.524414 2521.042480,738.961792 
	C2526.153076,738.602234 2530.973633,738.263000 2536.354736,737.884399 
	C2536.796387,732.731140 2537.209473,727.910278 2537.659180,722.665283 
	C2542.863525,722.665283 2547.669434,722.665283 2553.113525,722.665283 
	C2553.418457,727.659424 2553.696533,732.216003 2554.045654,737.939758 
	C2558.720947,738.189453 2563.513428,738.445374 2569.099854,738.743713 
	C2569.099854,744.049866 2569.099854,749.087280 2569.099854,754.764587 
	C2564.382080,755.040710 2559.806885,755.308472 2554.182617,755.637634 
	C2553.878662,760.357910 2553.569336,765.160156 2553.177002,771.250427 
	C2549.319824,771.376282 2545.497070,771.500977 2540.814697,771.584351 
z"/>
<path fill="#309C2F" opacity="1.000000" stroke="none" 
	d="
M2831.816895,284.346375 
	C2831.820068,287.864288 2831.820068,290.463745 2831.820068,293.711975 
	C2837.253906,294.152069 2842.047607,294.540283 2847.408203,294.974457 
	C2847.408203,300.155396 2847.408203,304.982208 2847.408203,310.697540 
	C2842.643066,311.010742 2837.818115,311.327881 2832.405029,311.683685 
	C2832.033691,316.735352 2831.679932,321.545471 2831.286377,326.901978 
	C2826.013672,326.901978 2821.209961,326.901978 2815.788574,326.901978 
	C2815.506592,322.091309 2815.239258,317.526276 2814.913086,311.956940 
	C2810.078369,311.559174 2805.287842,311.164978 2799.644531,310.700653 
	C2799.644531,305.681671 2799.644531,300.646027 2799.644531,294.947601 
	C2804.589600,294.587524 2809.408691,294.236633 2814.759766,293.846985 
	C2815.120850,288.612061 2815.455078,283.765686 2815.851562,278.015533 
	C2820.007324,278.015533 2823.904297,278.021667 2827.801025,278.013794 
	C2831.593018,278.006134 2831.875000,280.586731 2831.816895,284.346375 
z"/>
<path fill="#279827" opacity="1.000000" stroke="none" 
	d="
M2663.712891,508.181793 
	C2665.733398,506.820251 2667.607666,505.586334 2667.797363,504.132446 
	C2668.261963,500.574371 2667.948975,496.914795 2667.948975,492.581940 
	C2673.330322,492.581940 2678.108398,492.581940 2683.752197,492.581940 
	C2684.033936,497.235962 2684.325928,502.059235 2684.664551,507.652679 
	C2689.731934,507.979797 2694.570312,508.292114 2700.033691,508.644775 
	C2700.033691,513.622620 2700.033691,518.485596 2700.033691,524.337036 
	C2695.447998,524.604187 2690.630615,524.884827 2684.829346,525.222778 
	C2684.500244,530.245789 2684.185303,535.052185 2683.819336,540.639160 
	C2678.990234,540.639160 2674.239014,540.639160 2668.489258,540.639160 
	C2668.208252,535.991516 2667.917725,531.184570 2667.571045,525.452759 
	C2662.618896,525.089661 2657.824707,524.738159 2652.387695,524.339600 
	C2652.387695,519.312439 2652.387695,514.497253 2652.387695,508.209351 
	C2655.771973,508.209351 2659.286133,508.209351 2663.712891,508.181793 
z"/>
<path fill="#2E9B2D" opacity="1.000000" stroke="none" 
	d="
M709.152344,634.216187 
	C713.331177,611.897827 719.476807,590.976074 727.780945,569.638855 
	C733.304688,570.626526 738.625671,571.577881 744.566956,572.640198 
	C743.523254,575.850159 742.953613,578.051147 742.105896,580.139343 
	C734.497803,598.881653 726.701355,617.549194 719.288147,636.367920 
	C717.214966,641.630615 714.210388,644.663574 707.496399,644.566833 
	C708.002625,641.248169 708.480835,638.112915 709.152344,634.216187 
z"/>
<path fill="#309C2F" opacity="1.000000" stroke="none" 
	d="
M2422.283691,762.270874 
	C2422.379639,759.768921 2422.474609,758.124634 2422.613281,755.725830 
	C2427.573730,755.725830 2432.381836,755.725830 2438.083984,755.725830 
	C2438.083984,760.458618 2438.083984,765.498779 2438.083984,771.099609 
	C2433.144287,771.099609 2428.351562,771.099609 2422.916504,771.099609 
	C2422.688232,768.225769 2422.485596,765.677124 2422.283691,762.270874 
z"/>
<path fill="#309C2F" opacity="1.000000" stroke="none" 
	d="
M2553.475342,298.851929 
	C2554.747314,296.835114 2555.880859,294.795502 2557.267578,294.605377 
	C2560.847168,294.114563 2564.538330,294.441010 2569.049561,294.441010 
	C2569.049561,299.910889 2569.049561,304.966553 2569.049561,310.641663 
	C2564.195557,310.641663 2559.369873,310.641663 2553.452148,310.641663 
	C2553.452148,306.822205 2553.452148,303.246948 2553.475342,298.851929 
z"/>
<path fill="#309C2F" opacity="1.000000" stroke="none" 
	d="
M2725.914551,475.531860 
	C2728.660889,475.664612 2730.600342,475.796539 2733.085449,475.965576 
	C2733.085449,481.115082 2733.085449,485.872803 2733.085449,491.283630 
	C2728.026855,491.283630 2723.222168,491.283630 2717.736328,491.283630 
	C2717.736328,486.546082 2717.736328,481.726868 2717.736328,476.189911 
	C2720.054932,475.982666 2722.581299,475.756866 2725.914551,475.531860 
z"/>
<path fill="#309C2F" opacity="1.000000" stroke="none" 
	d="
M2455.071777,654.390747 
	C2450.000977,655.687866 2445.183350,656.211792 2439.488525,656.831116 
	C2439.488525,650.802307 2439.488525,645.797974 2439.488525,640.476013 
	C2444.746826,640.476013 2449.560059,640.476013 2455.324707,640.476013 
	C2455.324707,645.169922 2455.324707,649.393738 2455.071777,654.390747 
z"/>
<path fill="#2E9B2D" opacity="1.000000" stroke="none" 
	d="
M2389.782715,728.058472 
	C2389.801758,724.705444 2390.070312,722.350525 2393.284424,722.277649 
	C2397.196533,722.188904 2401.112305,722.256531 2405.557617,722.256531 
	C2405.557617,727.934326 2405.557617,732.749268 2405.557617,738.072021 
	C2400.466309,738.072021 2395.605469,738.072021 2390.185547,738.072021 
	C2390.038330,734.782043 2389.907959,731.868896 2389.782715,728.058472 
z"/>
<path fill="#299929" opacity="1.000000" stroke="none" 
	d="
M2651.713867,417.936157 
	C2651.802734,415.041565 2651.891357,413.080597 2652.013184,410.389252 
	C2657.019287,410.389252 2661.800049,410.389252 2667.303955,410.389252 
	C2667.303955,415.042328 2667.303955,419.828735 2667.303955,425.361572 
	C2662.636475,425.361572 2657.859131,425.361572 2652.409668,425.361572 
	C2652.186279,423.275879 2651.950195,421.072815 2651.713867,417.936157 
z"/>
<path fill="#309C2F" opacity="1.000000" stroke="none" 
	d="
M981.765503,481.390808 
	C981.352417,482.102112 980.812500,482.168457 979.467285,482.368591 
	C977.317627,479.263031 975.973145,476.023682 974.628662,472.784363 
	C974.970276,472.610474 975.311951,472.436615 975.653564,472.262756 
	C977.648560,475.090454 979.643616,477.918152 981.765503,481.390808 
z"/>
<path fill="#229623" opacity="1.000000" stroke="none" 
	d="
M531.990356,964.009766 
	C532.387390,964.393494 532.840820,964.732117 533.294250,965.070740 
	C532.735779,964.954163 532.177368,964.837585 531.893555,964.303467 
	C532.168152,963.885864 532.046814,963.964600 531.990356,964.009766 
z"/>
<path fill="#249724" opacity="1.000000" stroke="none" 
	d="
M894.136841,547.863831 
	C894.328369,548.091492 894.570374,548.284119 894.812317,548.476746 
	C894.528564,548.464783 894.244751,548.452820 894.121765,548.095947 
	C894.282532,547.751038 894.187317,547.828796 894.136841,547.863831 
z"/>
<path fill="#F7FBF7" opacity="1.000000" stroke="none" 
	d="
M2263.876709,947.494141 
	C2259.786133,962.587036 2250.353271,969.976074 2235.531982,970.238220 
	C2226.005615,970.406738 2216.473877,970.269775 2205.326660,970.269775 
	C2208.462158,949.238708 2211.416260,929.423035 2214.478271,908.884277 
	C2225.964600,908.684448 2236.433838,907.842773 2246.984375,909.785217 
	C2256.345459,911.508728 2262.027100,917.253906 2263.614746,926.041199 
	C2264.823486,932.730530 2263.934082,939.798950 2263.876709,947.494141 
z"/>
<path fill="#F7FBF7" opacity="1.000000" stroke="none" 
	d="
M1422.978027,1022.855835 
	C1424.415161,1014.487122 1425.799438,1006.980103 1426.853394,999.427002 
	C1427.852783,992.264465 1431.960571,987.659973 1438.716187,986.409912 
	C1444.808594,985.282410 1451.251099,984.816528 1457.391602,985.462463 
	C1467.151855,986.489136 1473.472412,993.265747 1472.436401,1003.050842 
	C1470.943237,1017.154114 1468.922119,1031.436279 1464.882202,1044.972412 
	C1460.371460,1060.086670 1440.472656,1067.144897 1425.965332,1060.477417 
	C1419.352173,1057.438110 1417.434082,1054.414673 1418.510620,1047.201904 
	C1419.685547,1039.329956 1421.337036,1031.529175 1422.978027,1022.855835 
z"/>
</svg>